<svg width="32" height="32" viewBox="0 0 32 32" fill="none" xmlns="http://www.w3.org/2000/svg">
<mask id="path-1-inside-1_122_11" fill="white">
<path fill-rule="evenodd" clip-rule="evenodd" d="M9.5929 20.9994H1C0.447716 20.9994 0 20.5517 0 19.9994V9.99941C0 9.44712 0.447715 8.99941 1 8.99941H9.5929L16.4697 4.69821C17.1358 4.28163 18 4.76045 18 5.54603L18 24.4528C18 25.2384 17.1358 25.7172 16.4697 25.3006L9.5929 20.9994Z"/>
</mask>
<path fill-rule="evenodd" clip-rule="evenodd" d="M9.5929 20.9994H1C0.447716 20.9994 0 20.5517 0 19.9994V9.99941C0 9.44712 0.447715 8.99941 1 8.99941H9.5929L16.4697 4.69821C17.1358 4.28163 18 4.76045 18 5.54603L18 24.4528C18 25.2384 17.1358 25.7172 16.4697 25.3006L9.5929 20.9994Z" fill="#8A8878"/>
<path d="M9.5929 20.9994L10.1232 20.1516L9.87987 19.9994H9.5929V20.9994ZM9.5929 8.99941V9.99941H9.87988L10.1232 9.84723L9.5929 8.99941ZM16.4697 4.69821L17 5.54603L17 5.54603L16.4697 4.69821ZM18 5.54603L17 5.54603L17 5.54603L18 5.54603ZM18 24.4528L19 24.4528L19 24.4528L18 24.4528ZM16.4697 25.3006L17 24.4528L17 24.4528L16.4697 25.3006ZM9.5929 19.9994H1V21.9994H9.5929V19.9994ZM1 19.9994H1H-1C-1 21.104 -0.104569 21.9994 1 21.9994V19.9994ZM1 19.9994V9.99941H-1V19.9994H1ZM1 9.99941V7.99941C-0.104569 7.99941 -1 8.89484 -1 9.99941H1ZM1 9.99941H9.5929V7.99941H1V9.99941ZM10.1232 9.84723L17 5.54603L15.9394 3.85039L9.06262 8.15159L10.1232 9.84723ZM17 5.54603L17 5.54603H19C19 3.97487 17.2715 3.01722 15.9394 3.85039L17 5.54603ZM17 5.54603L17 24.4528L19 24.4528L19 5.54603L17 5.54603ZM17 24.4528L17 24.4528L15.9394 26.1484C17.2715 26.9816 19 26.0239 19 24.4528H17ZM17 24.4528L10.1232 20.1516L9.06262 21.8472L15.9394 26.1484L17 24.4528Z" fill="#8A8878" mask="url(#path-1-inside-1_122_11)"/>
<path d="M24 14.9995H31" stroke="#8A8878" stroke-width="2" stroke-linecap="round"/>
<path d="M24.1366 7.57023L30.8636 3.99987" stroke="#8A8878" stroke-width="2" stroke-linecap="round"/>
<path d="M30.701 25.5831L23.9478 22.0364" stroke="#8A8878" stroke-width="2" stroke-linecap="round"/>
</svg>
