<svg width="32" height="25" viewBox="0 0 32 25" fill="none" xmlns="http://www.w3.org/2000/svg">
<mask id="path-1-inside-1_16_117" fill="white">
<path fill-rule="evenodd" clip-rule="evenodd" d="M9.5929 17.9994H1C0.447716 17.9994 0 17.5517 0 16.9994V6.99941C0 6.44712 0.447715 5.99941 1 5.99941H9.5929L16.4697 1.69821C17.1358 1.28163 18 1.76045 18 2.54603L18 21.4528C18 22.2384 17.1358 22.7172 16.4697 22.3006L9.5929 17.9994Z"/>
</mask>
<path fill-rule="evenodd" clip-rule="evenodd" d="M9.5929 17.9994H1C0.447716 17.9994 0 17.5517 0 16.9994V6.99941C0 6.44712 0.447715 5.99941 1 5.99941H9.5929L16.4697 1.69821C17.1358 1.28163 18 1.76045 18 2.54603L18 21.4528C18 22.2384 17.1358 22.7172 16.4697 22.3006L9.5929 17.9994Z" fill="#8A8878"/>
<path d="M9.5929 17.9994L10.1232 17.1516L9.87987 16.9994H9.5929V17.9994ZM9.5929 5.99941V6.99941H9.87988L10.1232 6.84723L9.5929 5.99941ZM16.4697 1.69821L17 2.54603V2.54603L16.4697 1.69821ZM18 2.54603H17V2.54603L18 2.54603ZM18 21.4528H19H18ZM16.4697 22.3006L17 21.4528V21.4528L16.4697 22.3006ZM9.5929 16.9994H1V18.9994H9.5929V16.9994ZM1 16.9994H1H-1C-1 18.104 -0.104569 18.9994 1 18.9994V16.9994ZM1 16.9994V6.99941H-1V16.9994H1ZM1 6.99941V4.99941C-0.104569 4.99941 -1 5.89484 -1 6.99941H1ZM1 6.99941H9.5929V4.99941H1V6.99941ZM10.1232 6.84723L17 2.54603L15.9394 0.850389L9.06262 5.15159L10.1232 6.84723ZM17 2.54603L17 2.54603H19C19 0.974871 17.2715 0.017224 15.9394 0.85039L17 2.54603ZM17 2.54603L17 21.4528H19L19 2.54603L17 2.54603ZM17 21.4528V21.4528L15.9394 23.1484C17.2715 23.9816 19 23.0239 19 21.4528H17ZM17 21.4528L10.1232 17.1516L9.06262 18.8472L15.9394 23.1484L17 21.4528Z" fill="#8A8878" mask="url(#path-1-inside-1_16_117)"/>
<path d="M24 11.9995H31" stroke="#8A8878" stroke-width="2" stroke-linecap="round"/>
<path d="M24.1366 4.57023L30.8636 0.999866" stroke="#8A8878" stroke-width="2" stroke-linecap="round"/>
<path d="M30.701 22.5831L23.9478 19.0364" stroke="#8A8878" stroke-width="2" stroke-linecap="round"/>
</svg>
